<svg width="18" height="18" viewBox="0 0 18 18" fill="none" xmlns="http://www.w3.org/2000/svg">
<path d="M7.83342 12.8327L13.7084 6.95768L12.5417 5.79102L7.83342 10.4993L5.45841 8.12435L4.29175 9.29102L7.83342 12.8327ZM9.00008 17.3327C7.8473 17.3327 6.76397 17.1139 5.75008 16.6764C4.73619 16.2389 3.85425 15.6452 3.10425 14.8952C2.35425 14.1452 1.7605 13.2632 1.323 12.2493C0.885498 11.2355 0.666748 10.1521 0.666748 8.99935C0.666748 7.84657 0.885498 6.76324 1.323 5.74935C1.7605 4.73546 2.35425 3.85352 3.10425 3.10352C3.85425 2.35352 4.73619 1.75977 5.75008 1.32227C6.76397 0.884766 7.8473 0.666016 9.00008 0.666016C10.1529 0.666016 11.2362 0.884766 12.2501 1.32227C13.264 1.75977 14.1459 2.35352 14.8959 3.10352C15.6459 3.85352 16.2397 4.73546 16.6772 5.74935C17.1147 6.76324 17.3334 7.84657 17.3334 8.99935C17.3334 10.1521 17.1147 11.2355 16.6772 12.2493C16.2397 13.2632 15.6459 14.1452 14.8959 14.8952C14.1459 15.6452 13.264 16.2389 12.2501 16.6764C11.2362 17.1139 10.1529 17.3327 9.00008 17.3327ZM9.00008 15.666C10.8612 15.666 12.4376 15.0202 13.7292 13.7285C15.0209 12.4368 15.6667 10.8605 15.6667 8.99935C15.6667 7.13824 15.0209 5.56185 13.7292 4.27018C12.4376 2.97852 10.8612 2.33268 9.00008 2.33268C7.13897 2.33268 5.56258 2.97852 4.27091 4.27018C2.97925 5.56185 2.33341 7.13824 2.33341 8.99935C2.33341 10.8605 2.97925 12.4368 4.27091 13.7285C5.56258 15.0202 7.13897 15.666 9.00008 15.666Z" fill="#031F75"/>
</svg>
