<svg width="20" height="20" viewBox="0 0 20 20" fill="none" xmlns="http://www.w3.org/2000/svg">
<mask id="mask0_133_30627" style="mask-type:alpha" maskUnits="userSpaceOnUse" x="0" y="0" width="20" height="20">
<rect width="20" height="20" fill="#D9D9D9"/>
</mask>
<g mask="url(#mask0_133_30627)">
<path d="M5.41659 16.666C4.1527 16.666 3.07284 16.2285 2.177 15.3535C1.28117 14.4785 0.833252 13.4091 0.833252 12.1452C0.833252 11.0618 1.15964 10.0966 1.81242 9.24935C2.4652 8.40213 3.31936 7.86046 4.37492 7.62435C4.61103 6.62435 5.20131 5.67296 6.14575 4.77018C7.0902 3.8674 8.09714 3.41602 9.16659 3.41602C9.62492 3.41602 10.0173 3.57921 10.3437 3.9056C10.6701 4.23199 10.8333 4.62435 10.8333 5.08268V10.1243L12.1666 8.83268L13.3333 9.99935L9.99992 13.3327L6.66659 9.99935L7.83325 8.83268L9.16659 10.1243V5.08268C8.11103 5.27713 7.29159 5.78754 6.70825 6.61393C6.12492 7.44032 5.83325 8.29102 5.83325 9.16602H5.41659C4.61103 9.16602 3.92353 9.45074 3.35409 10.0202C2.78464 10.5896 2.49992 11.2771 2.49992 12.0827C2.49992 12.8882 2.78464 13.5757 3.35409 14.1452C3.92353 14.7146 4.61103 14.9993 5.41659 14.9993H15.4166C15.9999 14.9993 16.493 14.798 16.8958 14.3952C17.2985 13.9924 17.4999 13.4993 17.4999 12.916C17.4999 12.3327 17.2985 11.8396 16.8958 11.4368C16.493 11.0341 15.9999 10.8327 15.4166 10.8327H14.1666V9.16602C14.1666 8.49935 14.0138 7.87782 13.7083 7.30143C13.4027 6.72504 12.9999 6.23546 12.4999 5.83268V3.89518C13.5277 4.38129 14.3402 5.10004 14.9374 6.05143C15.5346 7.00282 15.8333 8.04102 15.8333 9.16602C16.7916 9.27713 17.5867 9.69032 18.2187 10.4056C18.8506 11.1209 19.1666 11.9577 19.1666 12.916C19.1666 13.9577 18.802 14.8431 18.0728 15.5723C17.3437 16.3014 16.4583 16.666 15.4166 16.666H5.41659Z" fill="#637381"/>
</g>
</svg>
