<svg width="20" height="20" viewBox="0 0 20 20" fill="none" xmlns="http://www.w3.org/2000/svg">
<mask id="mask0_133_29611" style="mask-type:alpha" maskUnits="userSpaceOnUse" x="0" y="0" width="20" height="20">
<rect width="20" height="20" fill="#D9D9D9"/>
</mask>
<g mask="url(#mask0_133_29611)">
<path d="M6.66659 14.9993H13.3333V13.3327H6.66659V14.9993ZM6.66659 11.666H13.3333V9.99935H6.66659V11.666ZM4.99992 18.3327C4.54159 18.3327 4.14922 18.1695 3.82284 17.8431C3.49645 17.5167 3.33325 17.1243 3.33325 16.666V3.33268C3.33325 2.87435 3.49645 2.48199 3.82284 2.1556C4.14922 1.82921 4.54159 1.66602 4.99992 1.66602H11.6666L16.6666 6.66602V16.666C16.6666 17.1243 16.5034 17.5167 16.177 17.8431C15.8506 18.1695 15.4583 18.3327 14.9999 18.3327H4.99992ZM10.8333 7.49935V3.33268H4.99992V16.666H14.9999V7.49935H10.8333Z" fill="#637381"/>
</g>
</svg>
