<svg width="18" height="18" viewBox="0 0 18 18" fill="none" xmlns="http://www.w3.org/2000/svg">
<path d="M3.16675 17.3327C2.70841 17.3327 2.31605 17.1695 1.98966 16.8431C1.66328 16.5167 1.50008 16.1243 1.50008 15.666V6.27018C1.25008 6.1174 1.04869 5.91949 0.895915 5.67643C0.743137 5.43338 0.666748 5.15213 0.666748 4.83268V2.33268C0.666748 1.87435 0.829943 1.48199 1.15633 1.1556C1.48272 0.82921 1.87508 0.666016 2.33341 0.666016H15.6667C16.1251 0.666016 16.5174 0.82921 16.8438 1.1556C17.1702 1.48199 17.3334 1.87435 17.3334 2.33268V4.83268C17.3334 5.15213 17.257 5.43338 17.1042 5.67643C16.9515 5.91949 16.7501 6.1174 16.5001 6.27018V15.666C16.5001 16.1243 16.3369 16.5167 16.0105 16.8431C15.6841 17.1695 15.2917 17.3327 14.8334 17.3327H3.16675ZM3.16675 6.49935V15.666H14.8334V6.49935H3.16675ZM2.33341 4.83268H15.6667V2.33268H2.33341V4.83268ZM6.50008 10.666H11.5001V8.99935H6.50008V10.666Z" fill="#637381"/>
</svg>
