<svg width="20" height="20" viewBox="0 0 20 20" fill="none" xmlns="http://www.w3.org/2000/svg">
<mask id="mask0_133_30635" style="mask-type:alpha" maskUnits="userSpaceOnUse" x="0" y="0" width="20" height="20">
<rect width="20" height="20" fill="#D9D9D9"/>
</mask>
<g mask="url(#mask0_133_30635)">
<path d="M9.99992 18.3327C8.06936 17.8466 6.47561 16.7389 5.21867 15.0098C3.96172 13.2806 3.33325 11.3605 3.33325 9.24935V4.16602L9.99992 1.66602L16.6666 4.16602V9.24935C16.6666 11.3605 16.0381 13.2806 14.7812 15.0098C13.5242 16.7389 11.9305 17.8466 9.99992 18.3327ZM9.99992 16.5827C11.4444 16.1243 12.6388 15.2077 13.5833 13.8327C14.5277 12.4577 14.9999 10.9299 14.9999 9.24935V5.31185L9.99992 3.43685L4.99992 5.31185V9.24935C4.99992 10.9299 5.47214 12.4577 6.41659 13.8327C7.36103 15.2077 8.55547 16.1243 9.99992 16.5827Z" fill="#637381"/>
</g>
</svg>
